<svg width="24" height="24" viewBox="0 0 24 24" fill="none" xmlns="http://www.w3.org/2000/svg">
<path d="M8.5 18C8.77614 18 9 17.7761 9 17.5V15.9492C10.141 15.7175 11 14.7094 11 13.5C11 12.2905 10.1411 11.2814 9 11.0498V6.5C9 6.22386 8.77614 6 8.5 6C8.22386 6 8 6.22386 8 6.5V11.0498C6.85886 11.2814 6 12.2905 6 13.5C6 14.7094 6.85895 15.7175 8 15.9492V17.5C8 17.7761 8.22386 18 8.5 18ZM15.5 18C15.7761 18 16 17.7761 16 17.5V12.9502C17.1411 12.7186 18 11.7095 18 10.5C18 9.29057 17.141 8.28247 16 8.05078V6.5C16 6.22386 15.7761 6 15.5 6C15.2239 6 15 6.22386 15 6.5V8.05078C13.859 8.28247 13 9.29057 13 10.5C13 11.7095 13.8589 12.7186 15 12.9502V17.5C15 17.7761 15.2239 18 15.5 18ZM15.5 12C14.6716 12 14 11.3284 14 10.5C14 9.67157 14.6716 9 15.5 9C16.3284 9 17 9.67157 17 10.5C17 11.3284 16.3284 12 15.5 12ZM8.5 15C7.67157 15 7 14.3284 7 13.5C7 12.6716 7.67157 12 8.5 12C9.32843 12 10 12.6716 10 13.5C10 14.3284 9.32843 15 8.5 15Z" fill="black" fill-opacity="0.9"/>
</svg>
