<svg width="32" height="24" viewBox="0 0 32 24" fill="none" xmlns="http://www.w3.org/2000/svg">
<path d="M10 7C7.23858 7 5 9.23858 5 12C5 14.7614 7.23858 17 10 17H26.5C26.7761 17 27 16.7761 27 16.5C27 16.2239 26.7761 16 26.5 16H10C7.79086 16 6 14.2091 6 12C6 9.79086 7.79086 8 10 8H26.5C26.7761 8 27 7.77614 27 7.5C27 7.22386 26.7761 7 26.5 7H10Z" fill="black" fill-opacity="0.9"/>
<path d="M25.7734 11.5C25.4973 11.5 25.2734 11.7239 25.2734 12C25.2734 12.2761 25.4973 12.5 25.7734 12.5H26.5C26.7761 12.5 27 12.2761 27 12C27 11.7239 26.7761 11.5 26.5 11.5H25.7734ZM21.8984 11.5C21.6223 11.5 21.3984 11.7239 21.3984 12C21.3984 12.2761 21.6223 12.5 21.8984 12.5H23.3516C23.6277 12.5 23.8516 12.2761 23.8516 12C23.8516 11.7239 23.6277 11.5 23.3516 11.5H21.8984ZM18.0234 11.5C17.7473 11.5 17.5234 11.7239 17.5234 12C17.5234 12.2761 17.7473 12.5 18.0234 12.5H19.4766C19.7527 12.5 19.9766 12.2761 19.9766 12C19.9766 11.7239 19.7527 11.5 19.4766 11.5H18.0234ZM14.1484 11.5C13.8723 11.5 13.6484 11.7239 13.6484 12C13.6484 12.2761 13.8723 12.5 14.1484 12.5H15.6016C15.8777 12.5 16.1016 12.2761 16.1016 12C16.1016 11.7239 15.8777 11.5 15.6016 11.5H14.1484ZM11 11.5C10.7239 11.5 10.5 11.7239 10.5 12C10.5 12.2761 10.7239 12.5 11 12.5H11.7266C12.0027 12.5 12.2266 12.2761 12.2266 12C12.2266 11.7239 12.0027 11.5 11.7266 11.5H11Z" fill="black" fill-opacity="0.3"/>
</svg>
